<svg width="16" height="16" viewBox="0 0 16 16" fill="none" xmlns="http://www.w3.org/2000/svg">
<path fill-rule="evenodd" clip-rule="evenodd" d="M11.1841 9.94649C11.9657 8.9073 12.4289 7.61504 12.4289 6.21459C12.4289 2.78237 9.64663 0 6.21447 0C2.78231 0 0 2.78237 0 6.21459C0 9.64681 2.78231 12.4292 6.21447 12.4292C7.61505 12.4292 8.90742 11.9658 9.94665 11.1841C9.99149 11.2812 10.0539 11.3721 10.1339 11.4521L14.4087 15.7269C14.7727 16.091 15.3629 16.091 15.727 15.7269C16.091 15.3629 16.091 14.7727 15.727 14.4086L11.4522 10.1338C11.3722 10.0538 11.2812 9.99134 11.1841 9.94649ZM6.21447 11.1863C8.96019 11.1863 11.186 8.96037 11.186 6.21459C11.186 3.46881 8.96019 1.24292 6.21447 1.24292C3.46874 1.24292 1.24289 3.46881 1.24289 6.21459C1.24289 8.96037 3.46874 11.1863 6.21447 11.1863Z" fill="#ACB1BD"/>
</svg>
